<?xml version="1.0" encoding="UTF-8"?>
<!DOCTYPE svg PUBLIC "-//W3C//DTD SVG 1.1//EN" "http://www.w3.org/Graphics/SVG/1.1/DTD/svg11.dtd">
<svg xmlns="http://www.w3.org/2000/svg" version="1.1" width="512px" height="512px" style="shape-rendering:geometricPrecision; text-rendering:geometricPrecision; image-rendering:optimizeQuality; fill-rule:evenodd; clip-rule:evenodd" xmlns:xlink="http://www.w3.org/1999/xlink">
<g><path style="opacity:0.981" fill="#000000" d="M 98.5,25.5 C 203.167,25.3333 307.834,25.5 412.5,26C 450.998,31.8312 474.831,53.6646 484,91.5C 485.366,105.459 485.866,119.459 485.5,133.5C 332.167,133.5 178.833,133.5 25.5,133.5C 24.8975,117.738 25.7308,102.071 28,86.5C 38.7381,51.2527 62.2381,30.9193 98.5,25.5 Z M 267.5,69.5 C 283.347,69.5164 289.18,77.183 285,92.5C 274.286,103.824 264.952,102.824 257,89.5C 255.02,79.7883 258.52,73.1216 267.5,69.5 Z M 325.5,69.5 C 339.158,68.6595 345.658,74.9929 345,88.5C 339.985,100.283 331.818,103.116 320.5,97C 311.44,85.8562 313.107,76.6896 325.5,69.5 Z M 384.5,69.5 C 397.324,68.8281 403.824,74.8281 404,87.5C 400.425,98.0374 393.259,101.871 382.5,99C 373.3,93.5317 371.133,86.0317 376,76.5C 378.416,73.5766 381.25,71.2433 384.5,69.5 Z"/></g>
<g><path style="opacity:0.984" fill="#000000" d="M 25.5,164.5 C 178.833,164.5 332.167,164.5 485.5,164.5C 485.5,226.5 485.5,288.5 485.5,350.5C 481.118,349.523 476.784,348.357 472.5,347C 485.388,328.315 483.722,310.982 467.5,295C 452.328,283.865 436.995,283.699 421.5,294.5C 416.001,271.159 401.334,260.325 377.5,262C 360.472,266.362 350.306,277.195 347,294.5C 331.64,282.693 316.14,282.526 300.5,294C 284.408,310.14 282.741,327.64 295.5,346.5C 270.081,352.735 259.247,368.735 263,394.5C 268.415,409.414 278.915,418.414 294.5,421.5C 281.553,443.726 285.553,462.226 306.5,477C 320.919,483.624 334.419,482.124 347,472.5C 348.357,476.784 349.523,481.118 350.5,485.5C 266.833,485.667 183.166,485.5 99.5,485C 64.4558,480.562 40.9558,461.729 29,428.5C 27.6145,423.239 26.6145,417.906 26,412.5C 25.5,329.834 25.3333,247.167 25.5,164.5 Z M 182.5,197.5 C 196.495,196.993 202.662,203.66 201,217.5C 190,250.5 179,283.5 168,316.5C 160.844,327.622 152.178,328.955 142,320.5C 138.891,316.315 137.891,311.648 139,306.5C 150,273.5 161,240.5 172,207.5C 174.106,202.557 177.606,199.224 182.5,197.5 Z M 114.5,213.5 C 125.024,213.53 131.024,218.696 132.5,229C 132.526,232.923 131.359,236.423 129,239.5C 121.456,246.709 114.289,254.209 107.5,262C 114.623,270.124 122.123,277.958 130,285.5C 134.707,294.699 132.873,302.199 124.5,308C 119.016,310.148 113.683,309.815 108.5,307C 96.3333,294.833 84.1667,282.667 72,270.5C 68.4418,263.965 68.7751,257.631 73,251.5C 84.1667,240.333 95.3333,229.167 106.5,218C 109.099,216.205 111.766,214.705 114.5,213.5 Z M 219.5,213.5 C 224.182,213.338 228.515,214.505 232.5,217C 244.333,228.833 256.167,240.667 268,252.5C 271.333,258.5 271.333,264.5 268,270.5C 255.833,282.667 243.667,294.833 231.5,307C 218.375,312.574 210.375,308.407 207.5,294.5C 207.622,291.302 208.455,288.302 210,285.5C 218.015,277.652 225.848,269.652 233.5,261.5C 225.848,253.348 218.015,245.348 210,237.5C 205.233,226.295 208.399,218.295 219.5,213.5 Z"/></g>
<g><path style="opacity:0.965" fill="#000000" d="M 380.5,281.5 C 389.545,280.722 396.045,284.389 400,292.5C 400.5,300.493 400.666,308.493 400.5,316.5C 407.526,317.931 414.026,320.598 420,324.5C 425.198,318.967 430.698,313.8 436.5,309C 453.967,304.814 461.8,311.648 460,329.5C 455.744,335.76 450.744,341.427 445,346.5C 444.333,347.5 444.333,348.5 445,349.5C 448.088,355.104 450.588,360.938 452.5,367C 458.833,367.333 465.167,367.667 471.5,368C 481.465,370.643 485.965,377.143 485,387.5C 483.702,393.469 480.202,397.635 474.5,400C 466.921,400.184 459.421,400.684 452,401.5C 450.372,407.888 447.872,413.888 444.5,419.5C 448.818,424.319 453.318,428.985 458,433.5C 460.923,439.325 461.256,445.325 459,451.5C 453.309,459.406 445.809,461.573 436.5,458C 431.032,453.533 425.865,448.7 421,443.5C 414.775,447.465 408.109,450.465 401,452.5C 400.667,459.833 400.333,467.167 400,474.5C 393.151,486.17 383.985,488.337 372.5,481C 371.333,479.167 370.167,477.333 369,475.5C 367.637,467.571 367.137,459.571 367.5,451.5C 360.563,450.451 354.063,448.118 348,444.5C 342.878,448.62 338.044,453.12 333.5,458C 326.297,461.526 319.297,461.193 312.5,457C 306.894,450.112 306.06,442.612 310,434.5C 314.833,429.667 319.667,424.833 324.5,420C 320.598,414.026 317.931,407.526 316.5,400.5C 308.493,400.666 300.493,400.5 292.5,400C 282.085,394.521 279.252,386.354 284,375.5C 286.755,371.423 290.588,368.923 295.5,368C 302.524,367.831 309.524,367.331 316.5,366.5C 318.384,359.852 321.05,353.519 324.5,347.5C 319.149,341.983 313.982,336.316 309,330.5C 305.427,321.191 307.594,313.691 315.5,308C 321.675,305.744 327.675,306.077 333.5,309C 338.377,314.213 343.544,319.046 349,323.5C 354.274,320.742 359.774,318.576 365.5,317C 367.114,308.71 368.281,300.21 369,291.5C 371.566,286.645 375.399,283.311 380.5,281.5 Z M 378.5,347.5 C 403.629,347.296 417.962,359.629 421.5,384.5C 419.842,400.971 411.508,412.471 396.5,419C 373.632,424.483 357.799,416.316 349,394.5C 345.185,370.108 355.019,354.442 378.5,347.5 Z"/></g>
</svg>
